<svg width="30" height="30" viewBox="0 0 30 30" fill="none" xmlns="http://www.w3.org/2000/svg">
<g clip-path="url(#clip0_36_2)">
<path d="M17.2002 11.5C22.3363 11.5001 26.4999 15.6637 26.5 20.7998V26.5H11.5V11.5H17.2002Z" stroke="#D9D9D9" stroke-width="3"/>
<path d="M4.076 7.408C3.044 7.408 2.276 7.192 1.772 6.76C1.268 6.304 1.016 5.644 1.016 4.78C1.016 3.892 1.268 3.232 1.772 2.8C2.276 2.344 3.044 2.116 4.076 2.116C5.108 2.116 5.876 2.344 6.38 2.8C6.884 3.232 7.136 3.892 7.136 4.78C7.136 5.644 6.884 6.304 6.38 6.76C5.876 7.192 5.108 7.408 4.076 7.408ZM6.524 10V28H1.592V10H6.524Z" fill="white"/>
</g>
<defs>
<clipPath id="clip0_36_2">
<rect width="30" height="30" fill="white"/>
</clipPath>
</defs>
</svg>
