<svg xmlns="http://www.w3.org/2000/svg" width="300" height="424" viewBox="0 0 300 424" role="img" aria-label="Minimal invoice template preview">
  <rect width="300" height="424" fill="#ffffff" stroke="#e5e7eb"/>
  <g fill="#1a1a1a" font-family="'Courier New', monospace">
    <text x="22" y="40" font-size="9" font-weight="bold">Bright Supplies Co.</text>
    <text x="22" y="53" font-size="8">5th Cross, Indiranagar</text>
    <text x="22" y="64" font-size="8">Bengaluru 560038</text>
    <text x="22" y="75" font-size="8">billing@brightsupplies</text>
    <rect x="178" y="28" width="100" height="46" fill="none" stroke="#1a1a1a"/>
    <text x="184" y="42" font-size="7.5" font-weight="bold">Invoice #:</text>
    <text x="184" y="55" font-size="7.5" font-weight="bold">Created:</text>
    <text x="184" y="68" font-size="7.5" font-weight="bold">Due:</text>
    <text x="272" y="42" font-size="7.5" text-anchor="end">INV-0007</text>
    <text x="272" y="55" font-size="7.5" text-anchor="end">Jun 01</text>
    <text x="272" y="68" font-size="7.5" text-anchor="end">Jun 30</text>
    <text x="22" y="104" font-size="8" font-weight="bold">Billed To:</text>
    <text x="22" y="116" font-size="8.5" font-weight="bold">Acme Industries Pvt Ltd</text>
    <text x="150" y="150" font-size="8.5" font-weight="bold" text-anchor="middle">Invoice INV-2026-0007</text>
  </g>
  <line x1="22" y1="160" x2="278" y2="160" stroke="#1a1a1a"/>
  <g fill="#1a1a1a" font-family="'Courier New', monospace" font-size="7" font-weight="bold">
    <text x="24" y="172">#</text>
    <text x="40" y="172">SKU</text>
    <text x="86" y="172">Desc.</text>
    <text x="210" y="172" text-anchor="end">Rate</text>
    <text x="244" y="172" text-anchor="end">Qty</text>
    <text x="278" y="172" text-anchor="end">Amount</text>
  </g>
  <line x1="22" y1="178" x2="278" y2="178" stroke="#c9c9c9" stroke-width="0.5"/>
  <g fill="#1a1a1a" font-family="'Courier New', monospace" font-size="7">
    <text x="24" y="192">1</text><text x="40" y="192">PPR-A4</text><text x="86" y="192">A4 Copier Paper</text><text x="210" y="192" text-anchor="end">285.00</text><text x="244" y="192" text-anchor="end">20</text><text x="278" y="192" text-anchor="end">6,064.80</text>
    <text x="24" y="206">2</text><text x="40" y="206">PEN-12</text><text x="86" y="206">Gel Ink Pens</text><text x="210" y="206" text-anchor="end">540.00</text><text x="244" y="206" text-anchor="end">8</text><text x="278" y="206" text-anchor="end">5,097.60</text>
  </g>
  <line x1="22" y1="216" x2="278" y2="216" stroke="#1a1a1a"/>
  <g fill="#1a1a1a" font-family="'Courier New', monospace" font-size="7.5">
    <text x="230" y="230" text-anchor="end">Subtotal</text><text x="278" y="230" text-anchor="end">10,020.00</text>
    <text x="230" y="243" text-anchor="end">Tax</text><text x="278" y="243" text-anchor="end">1,427.40</text>
    <text x="230" y="258" text-anchor="end" font-weight="bold">Total</text><text x="278" y="258" text-anchor="end" font-weight="bold">INR 11,162.40</text>
  </g>
  <text x="150" y="286" font-size="8" font-weight="bold" letter-spacing="2" text-anchor="middle" fill="#1a1a1a" font-family="'Courier New', monospace">INVOICE STATUS: PAID</text>
  <g fill="#1a1a1a" font-family="'Courier New', monospace" font-size="7.5" text-anchor="middle">
    <text x="150" y="350">***</text>
    <text x="150" y="364">Thank you for your business.</text>
    <text x="150" y="378">Bright Supplies Co.</text>
  </g>
</svg>
